<svg id="expnaded" xmlns="http://www.w3.org/2000/svg" viewBox="0 0 96 96"><path d="M21,72.44a1,1,0,0,1-1-1l-.16-20.64A36.11,36.11,0,0,1,55.9,14.73h1.79a1,1,0,0,1,0,2H55.9A34.11,34.11,0,0,0,21.83,50.8L22,71.44a1,1,0,0,1-1,1Z"/><path d="M29.1,51.8a1,1,0,0,1-1-1A27.76,27.76,0,0,1,47.23,24.39a1,1,0,0,1,.63,1.89A25.78,25.78,0,0,0,30.1,50.8,1,1,0,0,1,29.1,51.8Z"/><path d="M36.35,59a1,1,0,0,1-1-1c0-12,7.31-22.64,18.19-26.41a1,1,0,0,1,.65,1.89C44.12,37,37.35,46.84,37.35,58A1,1,0,0,1,36.35,59Z"/><path d="M47.54,71.23a1,1,0,0,1-1-1V55.09A10.89,10.89,0,0,1,57.47,44.28h.22a1,1,0,0,1,0,2h-.22a8.88,8.88,0,0,0-8.93,8.81V70.23A1,1,0,0,1,47.54,71.23Z"/><path d="M64.93,50.76H62.1a5.42,5.42,0,0,1-5.41-5.41v-31a5.41,5.41,0,0,1,5.41-5.4h2.83a5.4,5.4,0,0,1,5.4,5.4v31A5.41,5.41,0,0,1,64.93,50.76ZM62.1,10.91a3.41,3.41,0,0,0-3.41,3.4v31a3.41,3.41,0,0,0,3.41,3.41h2.83a3.41,3.41,0,0,0,3.4-3.41v-31a3.4,3.4,0,0,0-3.4-3.4Z"/><path d="M82.77,16.73H69.33a1,1,0,0,1,0-2H82.77a1,1,0,0,1,0,2Z"/><path d="M82.77,46.35H69.33a1,1,0,0,1,0-2H82.77a1,1,0,0,1,0,2Z"/><path d="M93,72.44a33.37,33.37,0,0,1-9.24-1.13A31.46,31.46,0,0,0,75,70.24a31.6,31.6,0,0,0-8.77,1.07A33.31,33.31,0,0,1,57,72.44a33.28,33.28,0,0,1-9.23-1.13A31.6,31.6,0,0,0,39,70.24a31.46,31.46,0,0,0-8.76,1.07A33.37,33.37,0,0,1,21,72.44a33.28,33.28,0,0,1-9.23-1.13A31.46,31.46,0,0,0,3,70.24a1,1,0,0,1,0-2,33.61,33.61,0,0,1,9.23,1.13A31.58,31.58,0,0,0,21,70.44a31.6,31.6,0,0,0,8.77-1.07A33.67,33.67,0,0,1,39,68.24a33.76,33.76,0,0,1,9.24,1.13A31.52,31.52,0,0,0,57,70.44a31.6,31.6,0,0,0,8.77-1.07A33.76,33.76,0,0,1,75,68.24a33.76,33.76,0,0,1,9.24,1.13A31.46,31.46,0,0,0,93,70.44a1,1,0,0,1,0,2Z"/><path d="M93,79.77a33.76,33.76,0,0,1-9.24-1.13A31,31,0,0,0,75,77.56a31.15,31.15,0,0,0-8.77,1.08A33.7,33.7,0,0,1,57,79.77a33.67,33.67,0,0,1-9.23-1.13A31.15,31.15,0,0,0,39,77.56a31,31,0,0,0-8.76,1.08A33.76,33.76,0,0,1,21,79.77a33.67,33.67,0,0,1-9.23-1.13A31,31,0,0,0,3,77.56a1,1,0,0,1,0-2,33.61,33.61,0,0,1,9.23,1.13A31.12,31.12,0,0,0,21,77.77a31.15,31.15,0,0,0,8.77-1.08A33.67,33.67,0,0,1,39,75.56a33.76,33.76,0,0,1,9.24,1.13A31.06,31.06,0,0,0,57,77.77a31.15,31.15,0,0,0,8.77-1.08A33.76,33.76,0,0,1,75,75.56a33.76,33.76,0,0,1,9.24,1.13A31,31,0,0,0,93,77.77a1,1,0,0,1,0,2Z"/><path d="M93,87.09A33.37,33.37,0,0,1,83.76,86,31.46,31.46,0,0,0,75,84.89,31.6,31.6,0,0,0,66.23,86,33.31,33.31,0,0,1,57,87.09,33.28,33.28,0,0,1,47.76,86,31.6,31.6,0,0,0,39,84.89,31.46,31.46,0,0,0,30.23,86,33.37,33.37,0,0,1,21,87.09,33.28,33.28,0,0,1,11.76,86,31.46,31.46,0,0,0,3,84.89a1,1,0,0,1,0-2A33.22,33.22,0,0,1,12.23,84,31.58,31.58,0,0,0,21,85.09,31.6,31.6,0,0,0,29.76,84,33.28,33.28,0,0,1,39,82.89,33.37,33.37,0,0,1,48.23,84,31.52,31.52,0,0,0,57,85.09,31.6,31.6,0,0,0,65.76,84,33.37,33.37,0,0,1,75,82.89,33.37,33.37,0,0,1,84.24,84,31.46,31.46,0,0,0,93,85.09a1,1,0,0,1,0,2Z"/></svg>